<?xml version="1.0" encoding="UTF-8"?>
<svg id="alter" xmlns="http://www.w3.org/2000/svg" viewBox="0 0 250 250">
  <defs>
    <style>
      .cls-1 {
        fill: #000a14;
        stroke-width: 0px;
      }
    </style>
  </defs>
  <path class="cls-1" d="M235.87,199.12c.09-.12.18-.23.27-.36.04-.06.07-.12.11-.18.08-.13.17-.27.24-.41.03-.05.05-.11.08-.16.08-.15.15-.3.22-.46.02-.05.04-.11.06-.16.06-.16.12-.32.17-.49.02-.06.03-.13.05-.19.04-.16.08-.31.12-.47.02-.09.03-.18.04-.28.02-.13.05-.27.06-.41.01-.13.01-.25.02-.38,0-.1.02-.19.02-.29,0,0,0-.02,0-.03,0-.01,0-.02,0-.03,0-.12-.01-.24-.02-.35,0-.11,0-.22-.02-.33,0-.08-.02-.15-.03-.23-.02-.16-.04-.31-.07-.47,0-.01,0-.03-.01-.04-.14-.67-.38-1.31-.7-1.89-.02-.03-.04-.06-.06-.1-.09-.16-.19-.33-.3-.48-.04-.06-.09-.12-.13-.18-.09-.12-.18-.25-.28-.37-.06-.07-.12-.13-.18-.2-.09-.1-.19-.21-.29-.31-.01-.01-.02-.03-.04-.04l-30.94-30.06c-2.77-2.7-7.21-2.63-9.9.14-2.69,2.77-2.63,7.2.14,9.9l18.53,18.01-183.24-.36h-.01c-3.86,0-6.99,3.12-7,6.99,0,3.87,3.12,7.01,6.99,7.01l183.64.36-19.09,19.01c-2.74,2.73-2.75,7.16-.02,9.9,1.37,1.37,3.16,2.06,4.96,2.06s3.57-.68,4.94-2.04l31.06-30.94s.07-.07.1-.11c.12-.13.25-.26.36-.4.05-.06.1-.13.15-.2Z"/>
  <g>
    <path class="cls-1" d="M93.03,128.69c0-17.89-14.5-32.39-32.39-32.39s-32.39,14.5-32.39,32.39v36.84h10.93v4.05c0,4.47,3.63,8.1,8.1,8.1s8.1-3.63,8.1-8.1v-4.05h10.53v4.05c0,4.47,3.63,8.1,8.1,8.1s8.1-3.63,8.1-8.1v-4.05h10.93v-36.84Z"/>
    <circle class="cls-1" cx="60.64" cy="69.99" r="21.05"/>
  </g>
  <g>
    <path class="cls-1" d="M184,99.64c0-17.89-14.5-32.39-32.39-32.39s-32.39,14.5-32.39,32.39v53.04h10.93v17c0,4.47,3.63,8.1,8.1,8.1s8.1-3.63,8.1-8.1v-17h10.53v17c0,4.47,3.63,8.1,8.1,8.1s8.1-3.63,8.1-8.1v-17h10.93v-53.04Z"/>
    <circle class="cls-1" cx="151.61" cy="40.93" r="19.43"/>
  </g>
</svg>