<?xml version="1.0" encoding="UTF-8"?>
<svg id="dauer" xmlns="http://www.w3.org/2000/svg" viewBox="0 0 250 250">
  <defs>
    <style>
      .cls-1 {
        fill: #000a14;
        stroke-width: 0px;
      }
    </style>
  </defs>
  <path class="cls-1" d="M76.66,57.95c1.58,0,3.18-.44,4.61-1.36,6.24-4.02,13.03-7.16,20.18-9.34,4.5-1.37,7.04-6.13,5.67-10.64-1.37-4.5-6.13-7.04-10.64-5.67-8.65,2.64-16.88,6.44-24.44,11.31-3.96,2.55-5.1,7.82-2.55,11.78,1.63,2.53,4.37,3.91,7.17,3.91Z"/>
  <path class="cls-1" d="M39.6,96.59c1.11.49,2.27.72,3.41.72,3.28,0,6.41-1.91,7.81-5.11,3.01-6.87,6.97-13.31,11.76-19.11,3-3.63,2.48-9-1.15-12-3.63-3-9-2.48-12,1.14-5.8,7.03-10.59,14.81-14.24,23.13-1.89,4.31.08,9.34,4.39,11.22Z"/>
  <polygon class="cls-1" points="27.74 113.42 27.74 113.42 27.74 113.42 27.74 113.42"/>
  <path class="cls-1" d="M45.16,137.42c-2-12.44-.89-19.65-.65-20.96.07-.4.1-.64.11-.72.51-4.68-2.86-8.89-7.54-9.4-4.51-.5-8.6,2.64-9.33,7.07,0,0,0,.01,0,.02-.02.15-.05.3-.06.46,0-.07.02-.24.06-.45-.6,3.28-1.71,12.36.59,26.7.67,4.19,4.29,7.17,8.4,7.17.45,0,.91-.04,1.36-.11,4.65-.75,7.81-5.12,7.06-9.77Z"/>
  <path class="cls-1" d="M131.3,26.8c-4.72-.31-8.75,3.27-9.04,7.97-.3,4.7,3.27,8.75,7.96,9.04,42.47,2.7,75.73,38.18,75.73,80.78s-36.31,80.95-80.95,80.95c-29.77,0-57.06-16.28-71.24-42.48-2.24-4.14-7.41-5.68-11.55-3.44-4.14,2.24-5.68,7.41-3.44,11.55,17.16,31.71,50.2,51.42,86.23,51.42,54.03,0,97.99-43.96,97.99-97.99S182.72,30.07,131.3,26.8Z"/>
  <path class="cls-1" d="M80.68,169.7c-2.82,3.77-2.05,9.11,1.71,11.93,1.53,1.15,3.32,1.7,5.1,1.7,2.59,0,5.15-1.18,6.83-3.41l37.87-50.57c.04-.06.08-.12.12-.18.09-.13.19-.27.27-.41.07-.1.13-.21.19-.32.08-.13.15-.27.22-.41.06-.12.11-.23.16-.35.06-.13.12-.27.17-.41.05-.13.09-.25.14-.38.04-.13.08-.27.12-.4.04-.14.07-.28.1-.41.03-.13.05-.26.08-.39.03-.15.05-.3.06-.45.01-.13.03-.25.04-.38.01-.16.02-.31.02-.47,0-.08.01-.15,0-.23l-.37-39.76c-.04-4.68-3.85-8.44-8.52-8.44-.03,0-.05,0-.08,0-4.71.04-8.49,3.89-8.44,8.6l.34,36.88-36.14,48.26Z"/>
</svg>