<?xml version="1.0" encoding="UTF-8"?>
<svg id="Layer_1" data-name="Layer 1" xmlns="http://www.w3.org/2000/svg" viewBox="0 0 250 250">
  <defs>
    <style>
      .cls-1 {
        stroke-width: 0px;
      }
    </style>
  </defs>
  <path class="cls-1" d="M68.28,46.38c1.85,0,3.73-.51,5.4-1.59,7.32-4.72,15.29-8.4,23.68-10.96,5.28-1.61,8.26-7.2,6.65-12.48-1.61-5.28-7.2-8.26-12.48-6.65-10.15,3.09-19.8,7.56-28.68,13.27-4.64,2.99-5.98,9.18-2.99,13.82,1.91,2.97,5.13,4.59,8.42,4.59Z"/>
  <path class="cls-1" d="M24.79,91.72c1.31.57,2.67.84,4,.84,3.85,0,7.52-2.24,9.17-5.99,3.53-8.07,8.17-15.61,13.8-22.43,3.52-4.26,2.92-10.56-1.34-14.08-4.26-3.52-10.56-2.91-14.08,1.34-6.81,8.25-12.43,17.38-16.7,27.15-2.21,5.06.09,10.96,5.15,13.17Z"/>
  <polygon class="cls-1" points="10.88 111.47 10.88 111.47 10.88 111.47 10.88 111.47"/>
  <path class="cls-1" d="M31.32,139.63c-2.35-14.6-1.05-23.05-.76-24.6.08-.47.12-.75.13-.85.6-5.49-3.36-10.43-8.85-11.03-5.29-.58-10.09,3.1-10.95,8.3,0,0,0,.01,0,.02-.03.18-.05.36-.07.53,0-.09.03-.28.07-.53-.7,3.85-2.01,14.5.7,31.33.79,4.92,5.04,8.41,9.86,8.41.53,0,1.06-.04,1.6-.13,5.45-.88,9.16-6.01,8.29-11.46Z"/>
  <path class="cls-1" d="M132.4,9.83c-5.54-.36-10.26,3.83-10.61,9.35-.35,5.51,3.83,10.26,9.35,10.61,49.83,3.16,88.87,44.8,88.87,94.79s-42.61,94.99-94.99,94.99c-34.93,0-66.96-19.1-83.6-49.85-2.63-4.86-8.7-6.66-13.55-4.04-4.86,2.63-6.66,8.7-4.04,13.55,20.14,37.21,58.91,60.33,101.19,60.33,63.4,0,114.99-51.58,114.99-114.99S192.74,13.66,132.4,9.83Z"/>
  <path class="cls-1" d="M73,177.51c-3.31,4.42-2.41,10.69,2.01,14,1.8,1.35,3.9,2,5.99,2,3.04,0,6.05-1.38,8.01-4.01l44.43-59.34c.05-.07.09-.14.14-.21.11-.16.22-.31.32-.48.08-.12.15-.25.22-.37.09-.16.18-.32.26-.48.07-.14.13-.27.19-.41.07-.16.14-.32.2-.48.06-.15.11-.3.16-.45.05-.16.1-.31.14-.47.04-.16.08-.32.12-.49.03-.15.06-.31.09-.46.03-.17.05-.35.08-.52.02-.15.03-.3.04-.45.01-.19.02-.37.02-.55,0-.09.01-.18.01-.27l-.43-46.66c-.05-5.49-4.52-9.91-10-9.91-.03,0-.06,0-.09,0-5.52.05-9.96,4.57-9.91,10.09l.4,43.28-42.41,56.63Z"/>
</svg>