<?xml version="1.0" encoding="UTF-8"?>
<svg id="Layer_1" data-name="Layer 1" xmlns="http://www.w3.org/2000/svg" viewBox="0 0 250 250">
  <defs>
    <style>
      .cls-1 {
        fill: #ff6823;
        stroke-width: 0px;
      }
    </style>
  </defs>
  <path class="cls-1" d="M233.54,111.72l-103.71-65.82c-2.94-1.87-6.7-1.87-9.64,0L16.44,111.73c-4.05,2.57-5.64,7.86-3.34,12.07,2.52,4.61,8.36,6.06,12.73,3.29l37.18-23.59v121.42c0,5.29,4.29,9.57,9.57,9.57h114.86c5.29,0,9.57-4.29,9.57-9.57v-115.08l27.18,17.25c1.5.95,3.16,1.4,4.81,1.4,3.08,0,6.09-1.58,7.78-4.46,2.48-4.23.91-9.7-3.23-12.33ZM172.62,94.5l.09-.06.1.06h-.19Z"/>
</svg>