<?xml version="1.0" encoding="UTF-8"?>
<svg id="indoor" xmlns="http://www.w3.org/2000/svg" viewBox="0 0 250 250">
  <defs>
    <style>
      .cls-1 {
        fill: #fac919;
        stroke-width: 0px;
      }
    </style>
  </defs>
  <path class="cls-1" d="M236.6,112.32c-1.72,2.7-4.63,4.18-7.61,4.18-1.65,0-3.32-.45-4.81-1.4l-34.18-21.69v122.06c0,7.2-5.83,13.03-13.03,13.03h-103.94c-7.2,0-13.03-5.83-13.03-13.03v-122.06l-34.18,21.69c-4.2,2.66-9.76,1.42-12.42-2.78-2.66-4.19-1.42-9.76,2.78-12.42L120.18,33.9c2.94-1.87,6.7-1.87,9.64,0l104,66c4.2,2.66,5.44,8.23,2.78,12.42Z"/>
</svg>