<?xml version="1.0" encoding="UTF-8"?>
<svg id="jugendtour" xmlns="http://www.w3.org/2000/svg" viewBox="0 0 250 250">
  <defs>
    <style>
      .cls-1 {
        fill: #fac919;
        stroke-width: 0px;
      }
    </style>
  </defs>
  <path class="cls-1" d="M101.25,114c0-22.09-17.91-40-40-40s-40,17.91-40,40v88.5h13.5v21c0,5.52,4.48,10,10,10s10-4.48,10-10v-21h13v21c0,5.52,4.48,10,10,10s10-4.48,10-10v-21h13.5v-88.5Z"/>
  <circle class="cls-1" cx="61.25" cy="44.5" r="24"/>
  <g>
    <circle class="cls-1" cx="180" cy="44.5" r="24"/>
    <path class="cls-1" d="M228.75,202.5l-10.55-103.04c-6.21-14.81-21.15-25.46-37.95-25.46s-31.74,10.65-37.95,25.46l-10.55,103.04h21.99v21c0,5.52,4.48,10,10,10s10-4.48,10-10v-21h13v21c0,5.52,4.48,10,10,10s10-4.48,10-10v-21h21.99Z"/>
  </g>
</svg>