<?xml version="1.0" encoding="UTF-8"?>
<svg id="Layer_1" data-name="Layer 1" xmlns="http://www.w3.org/2000/svg" viewBox="0 0 250 250">
  <defs>
    <style>
      .cls-1 {
        fill: #ff6823;
        stroke-width: 0px;
      }
    </style>
  </defs>
  <g>
    <path class="cls-1" d="M101.25,131c0-22.09-17.91-40-40-40s-40,17.91-40,40v65.5h13.5v21c0,5.52,4.48,10,10,10s10-4.48,10-10v-21h13v21c0,5.52,4.48,10,10,10s10-4.48,10-10v-21h13.5v-65.5Z"/>
    <circle class="cls-1" cx="61.25" cy="58.5" r="24"/>
  </g>
  <g>
    <path class="cls-1" d="M228.75,196.5l-10.55-80.04c-6.21-14.81-21.15-25.46-37.95-25.46s-31.74,10.65-37.95,25.46l-10.55,80.04h21.99v21c0,5.52,4.48,10,10,10s10-4.48,10-10v-21h13v21c0,5.52,4.48,10,10,10s10-4.48,10-10v-21h21.99Z"/>
    <circle class="cls-1" cx="180.25" cy="58.5" r="26"/>
  </g>
</svg>