<?xml version="1.0" encoding="UTF-8"?>
<svg id="Layer_1" data-name="Layer 1" xmlns="http://www.w3.org/2000/svg" viewBox="0 0 250 250">
  <defs>
    <style>
      .cls-1 {
        fill: #fac60b;
        stroke-width: 0px;
      }
    </style>
  </defs>
  <g>
    <path class="cls-1" d="M101.25,167c0-22.09-17.91-40-40-40s-40,17.91-40,40v45.5h13.5v5c0,5.52,4.48,10,10,10s10-4.48,10-10v-5h13v5c0,5.52,4.48,10,10,10s10-4.48,10-10v-5h13.5v-45.5Z"/>
    <circle class="cls-1" cx="61.25" cy="94.5" r="26"/>
  </g>
  <g>
    <path class="cls-1" d="M228.75,212.5l-10.55-60.04c-6.21-14.81-21.15-25.46-37.95-25.46s-31.74,10.65-37.95,25.46l-10.55,60.04h21.99v5c0,5.52,4.48,10,10,10s10-4.48,10-10v-5h13v5c0,5.52,4.48,10,10,10s10-4.48,10-10v-5h21.99Z"/>
    <circle class="cls-1" cx="180.25" cy="94.5" r="26"/>
  </g>
</svg>