<?xml version="1.0" encoding="UTF-8"?>
<svg id="logo_desktop_" data-name="logo (desktop)" xmlns="http://www.w3.org/2000/svg" viewBox="0 0 365.58 191">
  <defs>
    <style>
      .cls-1 {
        stroke: #fff;
        stroke-miterlimit: 10;
        stroke-width: 3.75px;
      }

      .cls-1, .cls-2 {
        fill: #feffff;
      }

      .cls-2 {
        stroke-width: 0px;
      }
    </style>
  </defs>
  <g>
    <path class="cls-2" d="M257.21,2.31l-37.72,88.69h-19.83l13.79-30.61L188.99,2.31h20.58l13.9,37.61,13.8-37.61h19.94Z"/>
    <path class="cls-2" d="M320.25,36.8h-41.71c.29,3.74,1.49,6.59,3.61,8.57,2.12,1.98,4.72,2.96,7.81,2.96,4.6,0,7.79-1.94,9.59-5.82h19.61c-1.01,3.95-2.82,7.51-5.44,10.67-2.62,3.16-5.91,5.64-9.86,7.44-3.95,1.8-8.37,2.69-13.26,2.69-5.89,0-11.14-1.26-15.73-3.77-4.6-2.51-8.19-6.11-10.78-10.78-2.59-4.67-3.88-10.13-3.88-16.38s1.28-11.71,3.83-16.38c2.55-4.67,6.12-8.26,10.72-10.78,4.6-2.51,9.88-3.77,15.84-3.77s10.99,1.22,15.52,3.66c4.53,2.44,8.06,5.93,10.61,10.45,2.55,4.53,3.83,9.81,3.83,15.84,0,1.72-.11,3.52-.32,5.39ZM301.71,26.56c0-3.16-1.08-5.68-3.23-7.54-2.16-1.87-4.85-2.8-8.08-2.8s-5.7.9-7.81,2.69c-2.12,1.8-3.43,4.35-3.93,7.65h23.06Z"/>
  </g>
  <path class="cls-2" d="M296.99,102.31l-37.72,88.69h-19.83l13.79-30.61-24.46-58.09h20.58l13.9,37.61,13.8-37.61h19.94Z"/>
  <path class="cls-2" d="M365.7,133.82c0-6.52-1.39-12.23-4.17-17.12-2.78-4.89-6.63-8.66-11.55-11.3-4.93-2.64-10.56-3.96-16.89-3.96s-12.24,1.36-17.25,4.08c-5.01,2.72-8.9,6.6-11.67,11.64-2.78,5.05-4.17,10.95-4.17,17.7s1.41,12.65,4.22,17.7c2.81,5.05,6.73,8.93,11.73,11.65,5.01,2.72,10.71,4.07,17.13,4.07,5.32,0,10.13-.97,14.43-2.91,4.3-1.94,7.88-4.62,10.73-8.03,2.85-3.42,4.83-7.26,5.92-11.53h-21.35c-1.96,4.19-5.44,6.29-10.44,6.29-3.36,0-6.2-1.07-8.5-3.2-2.31-2.13-3.62-5.22-3.93-9.26h45.4c.23-2.02.35-3.96.35-5.82ZM320.07,128.58c.55-3.57,1.97-6.33,4.28-8.27,2.31-1.94,5.14-2.91,8.51-2.91s6.45,1.01,8.8,3.03c2.35,2.02,3.52,4.74,3.52,8.15h-25.11Z"/>
  <line class="cls-1" x1="87.73" y1="53.49" x2="11.06" y2="53.49"/>
  <polygon class="cls-2" points="100.5 38.03 91.03 1.77 81.57 38.03 100.5 38.03"/>
  <path class="cls-2" d="M152.6,2.28h-52.88l-2.74,7.58,8.39,31.92h-28.65l5.54-21.1-6.03-6.4-11.21-12.01h-21.63l-11.44,12.46-.07-8.02-11.15-.02-.33,19.82L0,47.64v142.14h28.92s2.95,0,2.95,0h0s47.81,0,47.81,0l11.22-33.12h69.98l11.22,33.12h48.34L152.6,2.28ZM60.38,69.3c0-3.31,2.68-5.99,5.99-5.99s5.99,2.68,5.99,5.99v15.11h-11.98v-15.11ZM35.72,69.3c0-3.31,2.68-5.99,5.99-5.99s5.99,2.68,5.99,5.99v15.11h-11.98v-15.11ZM11.06,69.3c0-3.31,2.68-5.99,5.99-5.99s5.99,2.68,5.99,5.99v15.11h-11.98v-15.11ZM7.44,139.1l-.38-3.73,25.63-2.6.38,3.73-25.63,2.6ZM92.01,151.6h-59.13v-3.75h20.72v-21.54h22.67v21.54h15.73v3.75ZM102.92,121.4l.71-2.13-49.44-12.48-46.48,11.66-.91-3.64,47.39-11.89,30.85,7.79v-41.42c0-3.31,2.68-5.99,5.99-5.99s5.99,2.68,5.99,5.99v44.44l7.8,1.97,21.07-62.95,23.24,68.64h-46.21Z"/>
</svg>