<?xml version="1.0" encoding="UTF-8"?>
<svg id="logo" xmlns="http://www.w3.org/2000/svg" viewBox="0 0 327.38 194.19">
  <defs>
    <style>
      .cls-1 {
        fill: #fac919;
      }

      .cls-1, .cls-2 {
        stroke-width: 0px;
      }

      .cls-2 {
        fill: #5c61ff;
      }
    </style>
  </defs>
  <g id="logo-2" data-name="logo">
    <g id="ye_gelb" data-name="ye gelb">
      <path class="cls-1" d="M224.32,13.96l-6.29,85.4-16.67,5.69,2.82-29.69-37.22-41.83,17.31-5.9,22.47,27.64.82-35.58,16.76-5.72Z"/>
      <path class="cls-1" d="M287.22,24.88l-35.07,11.96c1.31,3.06,3.14,5.12,5.49,6.17,2.35,1.05,4.82,1.14,7.42.25,3.87-1.32,6-3.87,6.4-7.64l16.49-5.62c.29,3.61-.22,7.12-1.52,10.53-1.3,3.41-3.35,6.44-6.16,9.08-2.81,2.64-6.27,4.67-10.37,6.07-4.95,1.69-9.72,2.14-14.31,1.34-4.59-.8-8.64-2.79-12.15-5.97-3.51-3.18-6.17-7.41-7.96-12.66-1.79-5.26-2.28-10.21-1.48-14.87.81-4.66,2.78-8.7,5.93-12.14,3.14-3.43,7.22-6,12.24-7.71s9.59-2.12,14.1-1.37c4.51.76,8.48,2.67,11.92,5.75,3.44,3.08,6.03,7.15,7.76,12.22.49,1.45.92,2.99,1.27,4.62ZM268.7,21.59c-.91-2.66-2.53-4.46-4.88-5.42-2.35-.95-4.88-.96-7.6-.04s-4.53,2.39-5.8,4.51c-1.27,2.12-1.64,4.64-1.11,7.56l19.39-6.61Z"/>
    </g>
    <g id="ye_blau" data-name="ye blau">
      <path class="cls-2" d="M325.68,142.13c0-5.79-1.23-10.86-3.7-15.21-2.47-4.35-5.89-7.69-10.27-10.04-4.38-2.34-9.38-3.52-15.01-3.52s-10.88,1.21-15.32,3.62c-4.45,2.41-7.91,5.86-10.37,10.35-2.47,4.48-3.7,9.73-3.7,15.73s1.25,11.24,3.75,15.73c2.5,4.48,5.98,7.93,10.42,10.35,4.45,2.42,9.52,3.62,15.22,3.62,4.72,0,9-.86,12.82-2.59,3.82-1.72,7-4.1,9.54-7.14,2.54-3.03,4.29-6.45,5.26-10.24h-18.97c-1.74,3.72-4.83,5.59-9.28,5.59-2.99,0-5.51-.95-7.56-2.84-2.05-1.9-3.21-4.64-3.49-8.22h40.34c.21-1.79.31-3.52.31-5.17ZM285.14,137.47c.49-3.17,1.75-5.62,3.8-7.35,2.05-1.72,4.57-2.59,7.56-2.59s5.73.9,7.82,2.69c2.08,1.79,3.13,4.21,3.13,7.24h-22.31Z"/>
      <path class="cls-2" d="M264.64,114.13l-33.51,78.8h-17.62l12.25-27.19-21.73-51.61h18.29l12.35,33.41,12.26-33.41h17.71Z"/>
    </g>
    <polyline id="spitze" class="cls-2" points="76.72 25.98 67.42 61.35 86.01 61.35 76.72 25.98"/>
    <path id="A" class="cls-2" d="M136.58,26.35h-46.98l-4.29,11.87,7.44,28.32h-32.04l7.81-29.73-9.76-10.45h-19.22l-10.16,11.07-.06-7.13-9.91-.02-.3,17.61L1,66.65v126.28h70.79s9.97-29.42,9.97-29.42h62.17l9.97,29.42h42.95L136.58,26.35ZM84.9,88.12v31.15l-16.36-4.12v-27.03c0-3.68,3.66-6.66,8.18-6.66s8.18,2.98,8.18,6.66ZM10.83,71.33h62.09v5.18H10.83v-5.18ZM56.04,88.12v16.79h-16.36v-16.79c0-3.68,3.66-6.66,8.18-6.66s8.18,2.98,8.18,6.66ZM27.18,88.12v16.79H10.83v-16.79c0-3.68,3.66-6.66,8.18-6.66s8.18,2.98,8.18,6.66ZM10.82,142.49l22.52-2.28.52,5.16-23.04,2.33v-5.21ZM74.87,167.96H30.24v-4.44h16.1v-23.6h24.17v23.6h5.86l-1.5,4.44ZM87.46,130.62l-39.29-9.92-37.35,9.37v-5.34l37.36-9.37,40.95,10.34-1.66,4.93ZM92.44,132.18l20.41-60.99,20.64,60.99h-41.05Z"/>
  </g>
</svg>