<?xml version="1.0" encoding="UTF-8"?>
<svg id="outdoor" xmlns="http://www.w3.org/2000/svg" viewBox="0 0 250 250">
  <defs>
    <style>
      .cls-1 {
        fill: #fac919;
        stroke-width: 0px;
      }
    </style>
  </defs>
  <path class="cls-1" d="M210.78,175.67c-2.41,0-4.73.34-6.94.97-4.82-4.1-11.06-6.58-17.88-6.58-2.35,0-4.63.3-6.81.85-4.97-7.28-13.34-12.06-22.82-12.06-14.3,0-26.06,10.87-27.48,24.8-1.83-.5-3.76-.78-5.75-.78-11.94,0-21.62,9.68-21.62,21.62s9.68,21.62,21.62,21.62h87.27c.13,0,.27,0,.4,0,13.93,0,25.22-11.29,25.22-25.22s-11.29-25.22-25.22-25.22Z"/>
  <path class="cls-1" d="M129.69,54.96c1.84,0,3.62.26,5.3.74,3.68-3.13,8.45-5.03,13.66-5.03,1.79,0,3.54.23,5.2.65,3.8-5.56,10.19-9.21,17.43-9.21,10.93,0,19.91,8.3,21,18.95,1.4-.38,2.87-.59,4.39-.59,9.12,0,16.52,7.39,16.52,16.52s-7.39,16.52-16.52,16.52h-66.68c-.1,0-.2,0-.31,0-10.64,0-19.27-8.63-19.27-19.27,0-10.64,8.63-19.27,19.27-19.27Z"/>
  <path class="cls-1" d="M34.64,111.33c2.16,0,4.24.31,6.21.87,4.32-3.67,9.9-5.89,16.01-5.89,2.1,0,4.14.26,6.09.76,4.45-6.52,11.94-10.8,20.43-10.8,12.81,0,23.34,9.73,24.61,22.21,1.64-.45,3.36-.7,5.15-.7,10.69,0,19.36,8.67,19.36,19.36,0,10.69-8.67,19.36-19.36,19.36H35h0c-.12,0-.24,0-.36,0-12.47,0-22.58-10.11-22.58-22.58,0-12.47,10.11-22.58,22.58-22.58Z"/>
</svg>