<?xml version="1.0" encoding="UTF-8"?>
<svg id="logo_desktop_" data-name="logo (desktop)" xmlns="http://www.w3.org/2000/svg" viewBox="0 0 2618.02 37">
  <defs>
    <style>
      .cls-1 {
        fill: none;
        stroke: #000;
        stroke-miterlimit: 10;
        stroke-width: 2px;
      }
    </style>
  </defs>
  <path class="cls-1" d="M0,2.51c81.81,0,81.81,31.97,163.63,31.97S245.44,2.51,327.25,2.51s81.81,31.97,163.62,31.97S572.68,2.51,654.5,2.51s81.81,31.97,163.63,31.97S899.93,2.51,981.75,2.51s81.81,31.97,163.63,31.97,81.81-31.97,163.63-31.97,81.81,31.97,163.63,31.97,81.81-31.97,163.63-31.97,81.81,31.97,163.62,31.97,81.81-31.97,163.63-31.97,81.81,31.97,163.63,31.97,81.81-31.97,163.63-31.97,81.82,31.97,163.63,31.97,81.82-31.97,163.63-31.97"/>
</svg>