<?xml version="1.0" encoding="UTF-8"?>
<svg id="logo_desktop_" data-name="logo (desktop)" xmlns="http://www.w3.org/2000/svg" viewBox="0 0 2618.02 33.97">
  <defs>
    <style>
      .cls-1 {
        fill: none;
        stroke: #000;
        stroke-miterlimit: 10;
        stroke-width: 2px;
      }
    </style>
  </defs>
  <path class="cls-1" d="M-3.24,1c81.81,0,81.81,31.97,163.63,31.97S242.2,1,324.01,1s81.81,31.97,163.62,31.97S569.45,1,651.26,1s81.81,31.97,163.63,31.97S896.7,1,978.51,1s81.81,31.97,163.63,31.97S1223.95,1,1305.76,1s81.81,31.97,163.63,31.97S1551.2,1,1633.01,1s81.81,31.97,163.62,31.97S1878.45,1,1960.26,1s81.81,31.97,163.63,31.97,81.81-31.97,163.63-31.97,81.82,31.97,163.63,31.97,81.82-31.97,163.63-31.97"/>
</svg>