<?xml version="1.0" encoding="UTF-8"?>
<svg id="logo_desktop_" data-name="logo (desktop)" xmlns="http://www.w3.org/2000/svg" viewBox="0 0 2618.02 37">
  <defs>
    <style>
      .cls-1 {
        fill: #5fd2ff;
        stroke-width: 0px;
      }
    </style>
  </defs>
  <path class="cls-1" d="M0,37h2618.02v-1c-77,0-77-36-154.01-36s-77,36-154.01,36S2233,0,2156,0s-77,36-154,36S1925,0,1848,0s-77,36-154,36S1617,0,1540,0s-77,36-154,36S1309,0,1232,0s-77,36-154,36S1000.99,0,923.99,0s-77,36-154,36S692.99,0,615.99,0s-77,36-154,36S385,0,308,0s-77,36-154,36S77,0,0,0v37Z"/>
</svg>