<?xml version="1.0" encoding="UTF-8"?>
<svg id="logo_desktop_" data-name="logo (desktop)" xmlns="http://www.w3.org/2000/svg" viewBox="0 0 2618.02 37">
  <defs>
    <style>
      .cls-1 {
        fill: #184376;
        stroke-width: 0px;
      }
    </style>
  </defs>
  <path class="cls-1" d="M0,37h2618.02v-1c-42.23,0-42.23-36-84.46-36s-42.23,36-84.46,36S2406.87,0,2364.64,0s-42.23,36-84.45,36S2237.96,0,2195.73,0s-42.23,36-84.45,36S2069.05,0,2026.82,0s-42.23,36-84.45,36S1900.14,0,1857.92,0s-42.23,36-84.45,36S1731.24,0,1689.02,0s-42.22,36-84.45,36S1562.34,0,1520.11,0s-42.23,36-84.45,36S1393.44,0,1351.21,0s-42.23,36-84.45,36S1224.53,0,1182.31,0s-42.23,36-84.45,36S1055.63,0,1013.4,0s-42.23,36-84.45,36S886.73,0,844.5,0s-42.23,36-84.45,36S717.83,0,675.6,0s-42.23,36-84.45,36S548.92,0,506.7,0s-42.22,36-84.45,36S380.03,0,337.8,0s-42.23,36-84.45,36S211.13,0,168.9,0s-42.23,36-84.45,36S42.23,0,0,0v37Z"/>
</svg>